;TYPE=PLATED
;Layer: PTH_Through
;EasyEDA Pro v2.2.47.7, 2026-05-29 18:28:33
;Gerber Generator version 0.3
M48
METRIC,LZ,0000.00000
;Hole size 1 = 0.30500 METRIC
T01C0.30500
;Hole size 2 = 0.90000 METRIC
T02C0.90000
;Hole size 3 = 0.91440 METRIC
T03C0.91440
;Hole size 4 = 1.00000 METRIC
T04C1.00000
;Hole size 5 = 1.00000 METRIC
T05C1.00000
;Hole size 6 = 1.02000 METRIC
T06C1.02000
;Hole size 7 = 1.04999 METRIC
T07C1.04999
%
G05
G90
T01
X24.62Y-93.936
X25.908Y-95.25
X0.115Y-21.082
T02
X9.652Y-92.456
X12.152Y-92.456
X7.152Y-92.456
T03
X-16.51Y6.731
X44.45Y-94.742
X-15.67227Y-95.52946
X44.704Y6.731
T04
X1.778Y-56.642
X1.778Y-54.102
X1.778Y-51.562
X1.778Y-49.022
X1.778Y-46.482
X1.778Y-43.942
X1.778Y-41.402
X1.778Y-38.862
X1.778Y-36.322
X1.778Y-33.782
X1.778Y-31.242
X1.778Y-28.702
X1.778Y-26.162
X1.778Y-23.622
X1.778Y-21.082
X27.17881Y-56.83964
X27.17881Y-54.29964
X27.17881Y-51.75964
X27.17881Y-49.21964
X27.17881Y-46.67964
X27.17881Y-44.13964
X27.17881Y-41.59964
X27.17881Y-39.05964
X27.17881Y-36.51964
X27.17881Y-33.97964
X27.17881Y-31.43964
X27.17881Y-28.89964
X27.17881Y-26.35964
X27.17881Y-23.81964
X27.17881Y-21.27964
T05
X-2.921Y-76.527
X-7.721Y-73.627
X-2.921Y-70.227
T06
X4.064Y-7.469
X4.064Y-10.009
X1.524Y-7.469
X1.524Y-10.009
X2.032Y-21.061
X2.032Y-23.601
X2.032Y-26.141
X2.032Y-28.681
X2.032Y-31.221
X2.032Y-33.761
X2.032Y-36.301
X2.032Y-38.841
X2.032Y-41.381
X2.032Y-43.921
X2.032Y-46.461
X2.032Y-49.001
X2.032Y-51.541
X2.032Y-54.081
X2.032Y-56.621
X27.432Y-21.061
X27.432Y-23.601
X27.432Y-26.141
X27.432Y-28.681
X27.432Y-31.221
X27.432Y-33.761
X27.432Y-36.301
X27.432Y-38.841
X27.432Y-41.381
X27.432Y-43.921
X27.432Y-46.461
X27.432Y-49.001
X27.432Y-51.541
X27.432Y-54.081
X27.432Y-56.621
T07
X33.655Y-57.023
X33.655Y-54.483
X33.655Y-51.943
X33.655Y-49.403
X33.655Y-46.863
X33.655Y-44.323
X33.655Y-41.783
X33.655Y-39.243
X33.655Y-36.703
X33.655Y-34.163
X33.655Y-31.623
X33.655Y-29.083
X33.655Y-26.543
X33.655Y-24.003
X33.655Y-21.463
X30.734Y-57.023
X30.734Y-54.483
X30.734Y-51.943
X30.734Y-49.403
X30.734Y-46.863
X30.734Y-44.323
X30.734Y-41.783
X30.734Y-39.243
X30.734Y-36.703
X30.734Y-34.163
X30.734Y-31.623
X30.734Y-29.083
X30.734Y-26.543
X30.734Y-24.003
X30.734Y-21.463
X-4.572Y-20.701
X-4.572Y-23.241
X-4.572Y-25.781
X-4.572Y-28.321
X-4.572Y-30.861
X-4.572Y-33.401
X-4.572Y-35.941
X-4.572Y-38.481
X-4.572Y-41.021
X-4.572Y-43.561
X-4.572Y-46.101
X-4.572Y-48.641
X-4.572Y-51.181
X-4.572Y-53.721
X-4.572Y-56.261
X-1.651Y-56.261
X-1.651Y-53.721
X-1.651Y-51.181
X-1.651Y-48.641
X-1.651Y-46.101
X-1.651Y-43.561
X-1.651Y-41.021
X-1.651Y-38.481
X-1.651Y-35.941
X-1.651Y-33.401
X-1.651Y-30.861
X-1.651Y-28.321
X-1.651Y-25.781
X-1.651Y-23.241
X-1.651Y-20.701
M30