G04 Layer: BoardOutlineLayer*
G04 EasyEDA Pro v2.2.47.7, 2026-05-29 18:28:33*
G04 Gerber Generator version 0.3*
G04 Scale: 100 percent, Rotated: No, Reflected: No*
G04 Dimensions in millimeters*
G04 Leading zeros omitted, absolute positions, 4 integers and 5 decimals*
G04 Generated by one-click*
G04 Object Configs: Pad,Via,Track,Text,Image,Dimension,BoardOutline,BoardCutout,CopperFilled,SolidRegion,FPCStiffener,Line,PlaneZone,ComponentProperty,ComponentSilkscreen,TearDrop*
G04 Layer Configs: 1,2,3,4,5,6,7,8,9,10,11,13,14,71,72,73,74,56*
G04 Copper Areas: 0*
%FSLAX45Y45*%
%MOMM*%
%ADD10C,0.003*%
%ADD11C,0.254*%
%ADD12C,0.8694*%
G75*


G04 PolygonModel Start*
G54D10*
G01X-182100Y-7072700D02*
G03X-132100Y-7022700I0J50000D01*
G01X-132100Y-7022700D02*
G03X-182100Y-6972700I-50000J0D01*
G01X-182100Y-6972700D02*
G01X-402100Y-6972700D01*
G01X-402100Y-6972700D02*
G03X-452100Y-7022700I0J-50000D01*
G01X-452100Y-7022700D02*
G03X-402100Y-7072700I50000J0D01*
G01X-402100Y-7072700D02*
G01X-182100Y-7072700D01*
G01X-722100Y-7252700D02*
G03X-772100Y-7202700I-50000J0D01*
G01X-772100Y-7202700D02*
G03X-822100Y-7252700I0J-50000D01*
G01X-822100Y-7252700D02*
G01X-822100Y-7472700D01*
G01X-822100Y-7472700D02*
G03X-772100Y-7522700I50000J0D01*
G01X-772100Y-7522700D02*
G03X-722100Y-7472700I0J50000D01*
G01X-722100Y-7472700D02*
G01X-722100Y-7252700D01*
G01X-112100Y-7652700D02*
G02X-162100Y-7702700I-50000J0D01*
G01X-162100Y-7702700D02*
G01X-422100Y-7702700D01*
G01X-422100Y-7702700D02*
G02X-472100Y-7652700I0J50000D01*
G01X-472100Y-7652700D02*
G02X-422100Y-7602700I50000J0D01*
G01X-422100Y-7602700D02*
G01X-162100Y-7602700D01*
G01X-162100Y-7602700D02*
G02X-112100Y-7652700I0J-50000D01*

G04 Rect Start*
G54D11*
G01X-1879600Y-9817100D02*
G01X-1879600Y838200D01*
G01X4673600Y838200D01*
G01X4673600Y-9817100D01*
G01X-1879600Y-9817100D01*
G04 Rect End*

M02*

