G04 Layer: BottomLayer*
G04 EasyEDA Pro v2.2.47.7, 2026-05-29 18:28:33*
G04 Gerber Generator version 0.3*
G04 Scale: 100 percent, Rotated: No, Reflected: No*
G04 Dimensions in millimeters*
G04 Leading zeros omitted, absolute positions, 4 integers and 5 decimals*
G04 Generated by one-click*
G04 Object Configs: Pad,Via,Track,Text,Image,Dimension,BoardOutline,BoardCutout,CopperFilled,SolidRegion,FPCStiffener,Line,PlaneZone,ComponentProperty,ComponentSilkscreen,TearDrop*
G04 Layer Configs: 1,2,3,4,5,6,7,8,9,10,11,13,14,71,72,73,74,56*
G04 Copper Areas: 0*
%FSLAX45Y45*%
%MOMM*%
%ADD10C,1.524*%
%ADD11R,1.6X1.6*%
%ADD12C,1.6*%
%ADD13O,4.4X2.2*%
%ADD14O,2.0X4.0*%
%ADD15O,4.0X2.0*%
%ADD16C,1.4152*%
%ADD17C,1.408*%
%ADD18R,1.408X1.408*%
%ADD19R,1.37X1.37*%
%ADD20C,1.37*%
%ADD21R,2.0X2.0*%
%ADD22C,2.0*%
%ADD23R,1.5748X1.6*%
%ADD24C,0.61*%
%ADD25C,0.254*%
G75*


G04 Pad Start*
G54D10*
G01X-1651000Y673100D03*
G01X4445000Y-9474200D03*
G01X-1567227Y-9552946D03*
G01X4470400Y673100D03*
G54D11*
G01X3365500Y-5702300D03*
G54D12*
G01X3365500Y-5448300D03*
G01X3365500Y-5194300D03*
G01X3365500Y-4940300D03*
G01X3365500Y-4686300D03*
G01X3365500Y-4432300D03*
G01X3365500Y-4178300D03*
G01X3365500Y-3924300D03*
G01X3365500Y-3670300D03*
G01X3365500Y-3416300D03*
G01X3365500Y-3162300D03*
G01X3365500Y-2908300D03*
G01X3365500Y-2654300D03*
G01X3365500Y-2400300D03*
G01X3365500Y-2146300D03*
G54D11*
G01X3073400Y-5702300D03*
G54D12*
G01X3073400Y-5448300D03*
G01X3073400Y-5194300D03*
G01X3073400Y-4940300D03*
G01X3073400Y-4686300D03*
G01X3073400Y-4432300D03*
G01X3073400Y-4178300D03*
G01X3073400Y-3924300D03*
G01X3073400Y-3670300D03*
G01X3073400Y-3416300D03*
G01X3073400Y-3162300D03*
G01X3073400Y-2908300D03*
G01X3073400Y-2654300D03*
G01X3073400Y-2400300D03*
G01X3073400Y-2146300D03*
G54D11*
G01X-457200Y-2070100D03*
G54D12*
G01X-457200Y-2324100D03*
G01X-457200Y-2578100D03*
G01X-457200Y-2832100D03*
G01X-457200Y-3086100D03*
G01X-457200Y-3340100D03*
G01X-457200Y-3594100D03*
G01X-457200Y-3848100D03*
G01X-457200Y-4102100D03*
G01X-457200Y-4356100D03*
G01X-457200Y-4610100D03*
G01X-457200Y-4864100D03*
G01X-457200Y-5118100D03*
G01X-457200Y-5372100D03*
G01X-457200Y-5626100D03*
G54D11*
G01X-165100Y-5626100D03*
G54D12*
G01X-165100Y-5372100D03*
G01X-165100Y-5118100D03*
G01X-165100Y-4864100D03*
G01X-165100Y-4610100D03*
G01X-165100Y-4356100D03*
G01X-165100Y-4102100D03*
G01X-165100Y-3848100D03*
G01X-165100Y-3594100D03*
G01X-165100Y-3340100D03*
G01X-165100Y-3086100D03*
G01X-165100Y-2832100D03*
G01X-165100Y-2578100D03*
G01X-165100Y-2324100D03*
G01X-165100Y-2070100D03*
G54D13*
G01X-292100Y-7652700D03*
G54D14*
G01X-772100Y-7362700D03*
G54D15*
G01X-292100Y-7022700D03*
G54D17*
G01X965200Y-9245600D03*
G54D18*
G01X1215200Y-9245600D03*
G54D17*
G01X715200Y-9245600D03*
G54D19*
G01X406400Y-746900D03*
G54D20*
G01X406400Y-1000900D03*
G01X152400Y-746900D03*
G01X152400Y-1000900D03*
G54D21*
G01X203200Y-2106100D03*
G54D22*
G01X203200Y-2360100D03*
G01X203200Y-2614100D03*
G01X203200Y-2868100D03*
G01X203200Y-3122100D03*
G01X203200Y-3376100D03*
G01X203200Y-3630100D03*
G01X203200Y-3884100D03*
G01X203200Y-4138100D03*
G01X203200Y-4392100D03*
G01X203200Y-4646100D03*
G01X203200Y-4900100D03*
G01X203200Y-5154100D03*
G01X203200Y-5408100D03*
G01X203200Y-5662100D03*
G01X2743200Y-2106100D03*
G01X2743200Y-2360100D03*
G01X2743200Y-2614100D03*
G01X2743200Y-2868100D03*
G01X2743200Y-3122100D03*
G01X2743200Y-3376100D03*
G01X2743200Y-3630100D03*
G01X2743200Y-3884100D03*
G01X2743200Y-4138100D03*
G01X2743200Y-4392100D03*
G01X2743200Y-4646100D03*
G01X2743200Y-4900100D03*
G01X2743200Y-5154100D03*
G01X2743200Y-5408100D03*
G01X2743200Y-5662100D03*
G54D12*
G01X177800Y-5664200D03*
G01X177800Y-5410200D03*
G01X177800Y-5156200D03*
G01X177800Y-4902200D03*
G01X177800Y-4648200D03*
G01X177800Y-4394200D03*
G01X177800Y-4140200D03*
G01X177800Y-3886200D03*
G01X177800Y-3632200D03*
G01X177800Y-3378200D03*
G01X177800Y-3124200D03*
G01X177800Y-2870200D03*
G01X177800Y-2616200D03*
G01X177800Y-2362200D03*
G54D23*
G01X177800Y-2108200D03*
G54D12*
G01X2717881Y-5683964D03*
G01X2717881Y-5429964D03*
G01X2717881Y-5175964D03*
G01X2717881Y-4921964D03*
G01X2717881Y-4667964D03*
G01X2717881Y-4413964D03*
G01X2717881Y-4159964D03*
G01X2717881Y-3905964D03*
G01X2717881Y-3651964D03*
G01X2717881Y-3397964D03*
G01X2717881Y-3143964D03*
G01X2717881Y-2889964D03*
G01X2717881Y-2635964D03*
G01X2717881Y-2381964D03*
G54D23*
G01X2717881Y-2127964D03*
G04 Pad End*

G04 Via Start*
G54D24*
G01X2462000Y-9393600D03*
G01X2590800Y-9525000D03*
G01X11500Y-2108200D03*
G04 Via End*

G04 Track Start*
G54D25*
G01X2462000Y-9393600D02*
G01X2590800Y-9522400D01*
G01X2590800Y-9525000D01*
G01X3073400Y-5702300D02*
G01X3365500Y-5702300D01*
G04 Track End*

M02*

