G04 Layer: TopLayer*
G04 EasyEDA Pro v2.2.47.7, 2026-05-29 18:28:33*
G04 Gerber Generator version 0.3*
G04 Scale: 100 percent, Rotated: No, Reflected: No*
G04 Dimensions in millimeters*
G04 Leading zeros omitted, absolute positions, 4 integers and 5 decimals*
G04 Generated by one-click*
G04 Object Configs: Pad,Via,Track,Text,Image,Dimension,BoardOutline,BoardCutout,CopperFilled,SolidRegion,FPCStiffener,Line,PlaneZone,ComponentProperty,ComponentSilkscreen,TearDrop*
G04 Layer Configs: 1,2,3,4,5,6,7,8,9,10,11,13,14,71,72,73,74,56*
G04 Copper Areas: 0*
%FSLAX45Y45*%
%MOMM*%
%AMRoundRect*1,1,$1,$2,$3*1,1,$1,$4,$5*1,1,$1,0-$2,0-$3*1,1,$1,0-$4,0-$5*20,1,$1,$2,$3,$4,$5,0*20,1,$1,$4,$5,0-$2,0-$3,0*20,1,$1,0-$2,0-$3,0-$4,0-$5,0*20,1,$1,0-$4,0-$5,$2,$3,0*4,1,4,$2,$3,$4,$5,0-$2,0-$3,0-$4,0-$5,$2,$3,0*%
%ADD10C,1.524*%
%ADD11R,2.0X0.8*%
%ADD12R,0.9X0.8*%
%ADD13R,0.324X0.36843*%
%ADD14R,1.6X1.6*%
%ADD15C,1.6*%
%ADD16R,0.54X0.63647*%
%ADD17R,0.86401X0.80648*%
%ADD18RoundRect,0.1458X-0.39525X0.58525X0.39525X0.58525*%
%ADD19RoundRect,0.1395X-0.39525X0.58525X0.39525X0.58525*%
%ADD20RoundRect,0.1965X-1.52175X0.55675X1.52175X0.55675*%
%ADD21O,4.4X2.2*%
%ADD22O,2.0X4.0*%
%ADD23O,4.0X2.0*%
%ADD24C,1.408*%
%ADD25R,1.408X1.408*%
%ADD26R,1.37X1.37*%
%ADD27C,1.37*%
%ADD28R,2.0X2.0*%
%ADD29C,2.0*%
%ADD30R,1.5748X1.6*%
%ADD31C,0.61*%
%ADD32C,0.254*%
G75*


G04 Pad Start*
G54D10*
G01X-1651000Y673100D03*
G01X4445000Y-9474200D03*
G01X-1567227Y-9552946D03*
G01X4470400Y673100D03*
G54D11*
G01X1216500Y-8039100D03*
G01X942500Y-8039100D03*
G54D12*
G01X1892300Y-8388502D03*
G01X1892300Y-8248498D03*
G01X2628900Y-8858402D03*
G01X2628900Y-8718398D03*
G54D13*
G01X2590800Y-9577832D03*
G01X2590800Y-9522968D03*
G54D14*
G01X3365500Y-5702300D03*
G54D15*
G01X3365500Y-5448300D03*
G01X3365500Y-5194300D03*
G01X3365500Y-4940300D03*
G01X3365500Y-4686300D03*
G01X3365500Y-4432300D03*
G01X3365500Y-4178300D03*
G01X3365500Y-3924300D03*
G01X3365500Y-3670300D03*
G01X3365500Y-3416300D03*
G01X3365500Y-3162300D03*
G01X3365500Y-2908300D03*
G01X3365500Y-2654300D03*
G01X3365500Y-2400300D03*
G01X3365500Y-2146300D03*
G54D14*
G01X3073400Y-5702300D03*
G54D15*
G01X3073400Y-5448300D03*
G01X3073400Y-5194300D03*
G01X3073400Y-4940300D03*
G01X3073400Y-4686300D03*
G01X3073400Y-4432300D03*
G01X3073400Y-4178300D03*
G01X3073400Y-3924300D03*
G01X3073400Y-3670300D03*
G01X3073400Y-3416300D03*
G01X3073400Y-3162300D03*
G01X3073400Y-2908300D03*
G01X3073400Y-2654300D03*
G01X3073400Y-2400300D03*
G01X3073400Y-2146300D03*
G54D14*
G01X-457200Y-2070100D03*
G54D15*
G01X-457200Y-2324100D03*
G01X-457200Y-2578100D03*
G01X-457200Y-2832100D03*
G01X-457200Y-3086100D03*
G01X-457200Y-3340100D03*
G01X-457200Y-3594100D03*
G01X-457200Y-3848100D03*
G01X-457200Y-4102100D03*
G01X-457200Y-4356100D03*
G01X-457200Y-4610100D03*
G01X-457200Y-4864100D03*
G01X-457200Y-5118100D03*
G01X-457200Y-5372100D03*
G01X-457200Y-5626100D03*
G54D14*
G01X-165100Y-5626100D03*
G54D15*
G01X-165100Y-5372100D03*
G01X-165100Y-5118100D03*
G01X-165100Y-4864100D03*
G01X-165100Y-4610100D03*
G01X-165100Y-4356100D03*
G01X-165100Y-4102100D03*
G01X-165100Y-3848100D03*
G01X-165100Y-3594100D03*
G01X-165100Y-3340100D03*
G01X-165100Y-3086100D03*
G01X-165100Y-2832100D03*
G01X-165100Y-2578100D03*
G01X-165100Y-2324100D03*
G01X-165100Y-2070100D03*
G54D16*
G01X4279900Y-7610323D03*
G01X4279900Y-7502677D03*
G54D17*
G01X2692400Y-7250836D03*
G01X2692400Y-7100164D03*
G54D19*
G01X1282300Y-7344900D03*
G01X1511300Y-7344900D03*
G01X1740300Y-7344900D03*
G54D20*
G01X1511300Y-6675900D03*
G54D21*
G01X-292100Y-7652700D03*
G54D22*
G01X-772100Y-7362700D03*
G54D23*
G01X-292100Y-7022700D03*
G54D24*
G01X965200Y-9245600D03*
G54D25*
G01X1215200Y-9245600D03*
G54D24*
G01X715200Y-9245600D03*
G54D26*
G01X406400Y-746900D03*
G54D27*
G01X406400Y-1000900D03*
G01X152400Y-746900D03*
G01X152400Y-1000900D03*
G54D28*
G01X203200Y-2106100D03*
G54D29*
G01X203200Y-2360100D03*
G01X203200Y-2614100D03*
G01X203200Y-2868100D03*
G01X203200Y-3122100D03*
G01X203200Y-3376100D03*
G01X203200Y-3630100D03*
G01X203200Y-3884100D03*
G01X203200Y-4138100D03*
G01X203200Y-4392100D03*
G01X203200Y-4646100D03*
G01X203200Y-4900100D03*
G01X203200Y-5154100D03*
G01X203200Y-5408100D03*
G01X203200Y-5662100D03*
G01X2743200Y-2106100D03*
G01X2743200Y-2360100D03*
G01X2743200Y-2614100D03*
G01X2743200Y-2868100D03*
G01X2743200Y-3122100D03*
G01X2743200Y-3376100D03*
G01X2743200Y-3630100D03*
G01X2743200Y-3884100D03*
G01X2743200Y-4138100D03*
G01X2743200Y-4392100D03*
G01X2743200Y-4646100D03*
G01X2743200Y-4900100D03*
G01X2743200Y-5154100D03*
G01X2743200Y-5408100D03*
G01X2743200Y-5662100D03*
G54D15*
G01X177800Y-5664200D03*
G01X177800Y-5410200D03*
G01X177800Y-5156200D03*
G01X177800Y-4902200D03*
G01X177800Y-4648200D03*
G01X177800Y-4394200D03*
G01X177800Y-4140200D03*
G01X177800Y-3886200D03*
G01X177800Y-3632200D03*
G01X177800Y-3378200D03*
G01X177800Y-3124200D03*
G01X177800Y-2870200D03*
G01X177800Y-2616200D03*
G01X177800Y-2362200D03*
G54D30*
G01X177800Y-2108200D03*
G54D15*
G01X2717881Y-5683964D03*
G01X2717881Y-5429964D03*
G01X2717881Y-5175964D03*
G01X2717881Y-4921964D03*
G01X2717881Y-4667964D03*
G01X2717881Y-4413964D03*
G01X2717881Y-4159964D03*
G01X2717881Y-3905964D03*
G01X2717881Y-3651964D03*
G01X2717881Y-3397964D03*
G01X2717881Y-3143964D03*
G01X2717881Y-2889964D03*
G01X2717881Y-2635964D03*
G01X2717881Y-2381964D03*
G54D30*
G01X2717881Y-2127964D03*
G04 Pad End*

G04 Via Start*
G54D31*
G01X2462000Y-9393600D03*
G01X2590800Y-9525000D03*
G01X11500Y-2108200D03*
G04 Via End*

G04 Track Start*
G54D32*
G01X2590800Y-9577832D02*
G01X2599343Y-9569289D01*
G01X2618557Y-9569289D01*
G01X2936875Y-8858402D02*
G01X2628900Y-8858402D01*
G01X4450696Y-7649771D02*
G01X2936875Y-8858402D01*
G01X2608761Y-7334476D02*
G01X2692400Y-7250836D01*
G01X2608761Y-8754085D02*
G01X2608761Y-7334476D01*
G01X2590800Y-9522968D02*
G01X2556000Y-9488168D01*
G01X2159000Y-8388502D02*
G01X1892300Y-8388502D01*
G01X2618557Y-9569289D02*
G01X2634900Y-9552946D01*
G01X2634900Y-8864403D02*
G01X2628900Y-8858402D01*
G01X2563043Y-9569289D02*
G01X2520400Y-9526646D01*
G01X2520400Y-8749902D01*
G01X2159000Y-8388502D01*
G01X2599343Y-9569289D02*
G01X2563043Y-9569289D01*
G01X2634900Y-9552946D02*
G01X2634900Y-8864403D01*
G01X1892300Y-8388502D02*
G01X1291902Y-8388502D01*
G01X942500Y-8039100D01*
G01X942500Y-7684700D01*
G01X1282300Y-7344900D01*
G01X942500Y-8039100D02*
G01X-73900Y-7022700D01*
G01X-89400Y-7022700D01*
G01X965200Y-9245600D02*
G01X965200Y-8910000D01*
G01X-199400Y-7745400D01*
G01X1215200Y-9245600D02*
G01X2336800Y-9245600D01*
G01X2484800Y-9393600D01*
G01X2590800Y-9525000D02*
G01X2590800Y-9522968D01*
G01X2590800Y-8195400D02*
G01X1740300Y-7344900D01*
G01X2590800Y-8944759D02*
G01X2556000Y-8909959D01*
G01X2556000Y-8806846D01*
G01X2590800Y-8772046D01*
G01X2590800Y-9522968D02*
G01X2590800Y-8944759D01*
G01X2556000Y-9488168D02*
G01X2556000Y-8909959D01*
G01X2590800Y-8772046D02*
G01X2608761Y-8754085D01*
G01X2590800Y-8772046D02*
G01X2590800Y-8195400D01*
G01X4042700Y-7764097D02*
G01X4042700Y-7850858D01*
G01X2692400Y-7100164D02*
G01X3378767Y-7100164D01*
G01X4042700Y-7764097D01*
G01X4279900Y-7502677D02*
G01X4426994Y-7649771D01*
G01X4450696Y-7649771D01*
G01X4279900Y-7613658D02*
G01X4279900Y-7610323D01*
G01X3987800Y-7905758D02*
G01X4042700Y-7850858D01*
G01X4279900Y-7613658D01*
G01X1892300Y-8248498D02*
G01X1682902Y-8039100D01*
G01X1216500Y-8039100D01*
G01X1511300Y-7744300D01*
G01X1511300Y-7344900D01*
G01X3073400Y-5782800D01*
G01X3073400Y-5702300D01*
G01X4279900Y-7502677D02*
G01X4279900Y-6654800D01*
G01X3435300Y-5810200D01*
G01X3273944Y-5810200D01*
G01X3257600Y-5793856D01*
G01X3257600Y-5632500D01*
G01X3073400Y-5448300D01*
G01X3073400Y-5194300D01*
G01X3073400Y-4940300D01*
G01X3073400Y-4686300D01*
G01X3073400Y-4432300D01*
G01X3073400Y-4178300D01*
G01X3073400Y-3924300D01*
G01X3073400Y-3670300D01*
G01X3073400Y-3416300D01*
G01X3073400Y-3162300D01*
G01X3073400Y-2908300D01*
G01X3073400Y-2654300D01*
G01X3073400Y-2400300D01*
G01X3073400Y-2146300D01*
G01X3073400Y-2400300D02*
G01X2964278Y-2400300D01*
G01X2824521Y-2260543D01*
G01X2824521Y-2205658D01*
G01X2871100Y-2159078D01*
G01X2871100Y-2053122D01*
G01X2796178Y-1978200D01*
G01X2611240Y-2036408D02*
G01X2611240Y-2219520D01*
G01X2627584Y-2235864D01*
G01X2627584Y-2294838D01*
G01X2615300Y-2307122D01*
G01X2615300Y-2413078D01*
G01X2652761Y-2450539D01*
G01X2796178Y-1978200D02*
G01X2669448Y-1978200D01*
G01X2611240Y-2036408D01*
G01X3365500Y-5702300D02*
G01X3365500Y-5448300D01*
G01X3365500Y-5194300D01*
G01X3365500Y-4940300D01*
G01X3365500Y-4686300D01*
G01X3365500Y-4432300D01*
G01X3365500Y-4178300D01*
G01X3365500Y-3924300D01*
G01X3365500Y-3670300D01*
G01X3365500Y-3416300D01*
G01X3365500Y-3162300D01*
G01X3365500Y-2908300D01*
G01X3365500Y-2654300D01*
G01X3365500Y-2400300D01*
G01X3365500Y-2146300D01*
G01X-292100Y-7022700D02*
G01X-292100Y-7015400D01*
G01X-457200Y-6857600D02*
G01X-384800Y-6930000D01*
G01X-457200Y-2070100D02*
G01X-457200Y-2324100D01*
G01X-457200Y-2578100D01*
G01X-457200Y-2832100D01*
G01X-457200Y-3086100D01*
G01X-457200Y-3340100D01*
G01X-457200Y-3594100D01*
G01X-457200Y-3848100D01*
G01X-457200Y-4102100D01*
G01X-457200Y-4356100D01*
G01X-457200Y-4610100D01*
G01X-457200Y-4864100D01*
G01X-457200Y-5118100D01*
G01X-457200Y-5372100D01*
G01X-457200Y-5626100D01*
G01X-457200Y-6857600D01*
G01X406400Y-4442900D02*
G01X203200Y-4646100D01*
G01X406400Y-746900D02*
G01X406400Y-1000900D01*
G01X406400Y-4442900D01*
G01X152400Y-5384800D02*
G01X177800Y-5410200D01*
G01X152400Y-5284178D02*
G01X152400Y-5384800D01*
G01X152400Y-1917443D02*
G01X69900Y-1999943D01*
G01X69900Y-5201678D01*
G01X152400Y-5284178D01*
G01X152400Y-746900D02*
G01X152400Y-1000900D01*
G01X152400Y-1917443D01*
G01X-165100Y-2307600D02*
G01X34300Y-2108200D01*
G01X-165100Y-5626100D02*
G01X-165100Y-5372100D01*
G01X-165100Y-5118100D01*
G01X-165100Y-4864100D01*
G01X-165100Y-4610100D01*
G01X-165100Y-4356100D01*
G01X-165100Y-4102100D01*
G01X-165100Y-3848100D01*
G01X-165100Y-3594100D01*
G01X-165100Y-3340100D01*
G01X-165100Y-3086100D01*
G01X-165100Y-2832100D01*
G01X-165100Y-2578100D01*
G01X-165100Y-2307600D01*
G04 Track End*

M02*

